/* XPM */
static const char * player_an2[] = {
"70 209 9 1",
" 	c None",
".	c #000000",
"+	c #282828",
"@	c #8031BF",
"#	c #4E423D",
"$	c #382C27",
"%	c #DCBDA7",
"&	c #FFFFFF",
"*	c #C6A085",
"            .......+.....                                             ",
"        .....+++++++++++...                                           ",
"      ....+++++++++++++++++..                                         ",
"     ....+.++++..+....+++++++..                                       ",
"    ......................++++...                                     ",
"    .........................+++...                                   ",
"    ..   .....................+++++..                                 ",
"    ..     ....................++++++..                               ",
"             ....................+++++...                             ",
"             .....................+++++++.                            ",
"               .....................+++++++                           ",
"                 ....................++++++.                          ",
"                  ....................++++++.                         ",
"                  .....................++++++.                        ",
"                   .....................++++++.                       ",
"                   .......................++++..                      ",
"                    .......................++++..                     ",
"                    ........................+++++.                    ",
"                     .........................++++.                   ",
"                     ..........................++++.                  ",
"                      ..........................++++.                 ",
"                      ...........................++++.                ",
"                      ............................++++.               ",
"                       ............................++++.              ",
"                       .............................++++.             ",
"                       ..............................+++..            ",
"                        .............................++++..           ",
"                        ..............................++++..          ",
"                        ...............................++++.          ",
"                         ..............................++++..         ",
"                         ...............................++++..        ",
"                         ................................++++.        ",
"                         ................................++++..       ",
"                         .................................+++..       ",
"                         ..................................+++..      ",
"                         ...................................++..      ",
"                       .....................................+++..     ",
"                       ......................................+...     ",
"                     ...............................................  ",
"                     .@@@@@@@@@@@@@@@@@@@@@@@@@@@@@@@@@@@@@@@@@@@@@.  ",
"                     .@@@@@@@@@@@@@@@@@@@@@@@@@@@@@@@@@@@@@@@@@@@@@.  ",
"                     .@@@@@@@@@@@@@@@@@@@@@@@@@@@@@@@@@@@@@@@@@@@@@.  ",
"                   ...................................................",
"                   ...................................................",
"                   ...................................................",
"                   ...................................................",
"                       ...........................................    ",
"                               ..###########################.         ",
"                               ..$#############..............         ",
"                               .#$###########...%%%%%%%%%.            ",
"                              ..$$########....%%%%%....%%.            ",
"                              ..#$######...%%%%%%%..&&&%%.            ",
"                              .#$$######.%%%%%%%%%%&&.&%%.            ",
"                              .$########.%%%%%%%%%%&..&%%..           ",
"                              .$$######..%%%%%%%%%%&..&%%%..          ",
"                              .$$####...%%%%%%%%%%%&&&&%%%%%.         ",
"                              .$$$###.%.%.%%%%%%%%%%%%%%%%%%%.        ",
"                              .#$$###.%.%%%%%%%%%%%%%%%%%%**%.        ",
"                               .$$$##.%..**%%%%%%%%%%%%%%****.        ",
"                               .#$$##.%%%%%%%%%%%%%%%%%%%....         ",
"                               .#$###.%%%%%%%%%%%%%%%%%%%.            ",
"                               ..$##.%%%%%%%%%%%%%%%%%%%%.            ",
"                                ..##.%%%%.%%%%%%%%%%.%%%%.            ",
"                                 .##..%**..%%%%%%%%%.%%%%.            ",
"                                 ..##.%***.%%%%%%%%%%.....            ",
"                                 ..##.%%**.%%%%%%%%%%%%%%.            ",
"                                  ..#.%%***%%%%%%%%%%%%%%.            ",
"                                   ...%%%%**.%%%%%%%%%%%%.            ",
"                                    ..%%%%%**..%%%%%%%%%%.            ",
"                                  ........%%*...%%%%%%%%..            ",
"                                .................%%%%%%..             ",
"                              .....+........... ........              ",
"                             ......++++++++....                       ",
"                            ........++.++++++...                      ",
"                           ................+++...                     ",
"                           ..............+++++...                     ",
"                          ................+++++...                    ",
"                          ................+++++...                    ",
"                          ................++++++..                    ",
"                          ..................++++...                   ",
"                          ..................++++...                   ",
"                         ....................++++..                   ",
"                        .....................++++..                   ",
"                        .....................++++...                  ",
"                       .......................++++..                  ",
"                       .......................+++++.                  ",
"                       .......................+++++..                 ",
"                       .......................+++++..                 ",
"                      .........................++++..                 ",
"                      .........................++++..                 ",
"                      .........................++++..                 ",
"                      .........................++++..                 ",
"                     ...........................+++..                 ",
"                     ...........................+++..                 ",
"                     ...........................+++..                 ",
"                     ...........................+++..                 ",
"                    ...........................++++..                 ",
"                    ...........................++++..                 ",
"                    ...........................++++..                 ",
"                    ...........................++++..                 ",
"                    ............................++++.                 ",
"                   .............................++++.                 ",
"                  ..............................++++.                 ",
"                  ..............................++++.                 ",
"                  ..............................+++..                 ",
"                  .............................++++..                 ",
"                  .............................++++..                 ",
"                 .............................+++++..                 ",
"                 .............................+++++..                 ",
"                 .............................+++++..                 ",
"                 .............................+++++..                 ",
"                 .............................+++++..                 ",
"                 .............................+++++..                 ",
"                ..............................+++++..                 ",
"                ...............................++++..                 ",
"                ..............................+++++..                 ",
"                ..............................+++++..                 ",
"               ...............................+++++..                 ",
"               ...............................+++++..                 ",
"              .................................++++..                 ",
"              .................................++++..                 ",
"              .................................++++..                 ",
"              .................................++++..                 ",
"              .................................++++..                 ",
"             ..................................++++..                 ",
"             ..................................++++..                 ",
"             ..................................++++..                 ",
"             ..................................++++..                 ",
"             .................................+++++..                 ",
"            ..................................+++++..                 ",
"           ....................................++++..                 ",
"           ....................................++++..                 ",
"          .....................................++++..                 ",
"          .....................................++++..                 ",
"          ....................................+++++..                 ",
"          ....................................+++++..                 ",
"          .....................................++++..                 ",
"         ......................................++++..                 ",
"        ......................................+++++..                 ",
"        ......................................+++++..                 ",
"        ......................................+++++..                 ",
"        ......................................+++++..                 ",
"        .....................................++++++..                 ",
"       ......................................++++++..                 ",
"       ......................................++++++..                 ",
"       ......................................+++++...                 ",
"       .....................................++++++...                 ",
"      ......................................++++++...                 ",
"     .......................................++++++...                 ",
"     .......................................++++++...                 ",
"     .......................................++++++...                 ",
"     .......................................++++++...                 ",
"     .......................................++++++...                 ",
"     .......................................++++++...                 ",
"    .......................................+.+++++...                 ",
"    .........................................++++....                 ",
"   ..........................................++++....                 ",
"   ..........................................++++....                 ",
"   ..........................................++++....                 ",
"   ..........................................++++....                 ",
"  ...........................................++++....                 ",
"  ...........................................++++....                 ",
" ...........................................+++++....                 ",
" ...........................................+++++....                 ",
" ...........................................+++++....                 ",
" ..........................................+++++.....                 ",
"..........................................++++.....                   ",
".........................................+++++....                    ",
".........................................++.......                    ",
"................................................                      ",
"..........................................+...                        ",
"..............................................                        ",
" ..................................+..........                        ",
" ...........................................                          ",
"  ...........+.+............................                          ",
"   ........................................                           ",
"     ..................................                               ",
"                ........................                              ",
"                 ........+.........+....                              ",
"                .........++.........++...                             ",
"                .........++.........+++...                            ",
"                ........+++.. ......++++...                           ",
"               .........+++.   ......++++..                           ",
"               ........++++.   ........+++.                           ",
"              ........++++.     .......+++..                          ",
"              ........++++.     ........+++.                          ",
"             ........++++..      ........++..                         ",
"             .......++++..       ........+++..                        ",
"             .......++++.         ........+++.                        ",
"            .......++++..          .........+..                       ",
"           .......++++...          .........++.                       ",
"          ........++++..            .........++.                      ",
"          ........+++...            .........++.                      ",
"         .......++++....             ........+++.                     ",
"         ......+++++...              .........++..                    ",
"        ......+++.+...                ........++..                    ",
"        .....++++++..                  ..........    ...              ",
"       ....+++++++...                  .................              ",
"       ...++++++++..                    ................              ",
"       ...++++......                     ...............              ",
"        ...........                      ..............               ",
"       ........                           ...........                 ",
"      .........                             ........                  ",
"      ..........                            ......                    ",
"       ..........                            ....                     ",
"        ...........                                                   ",
"           .........                                                  ",
"             .......                                                  ",
"               .....                                                  "};
