/* XPM */
static const char * bomb_instruction_xpm[] = {
"50 50 6 1",
" 	c None",
".	c #000000",
"+	c #E0E0E0",
"@	c #8241DF",
"#	c #9758F2",
"$	c #5918B7",
"                      ..                          ",
"                   ..     ..                      ",
"                   ..     ..                      ",
"                      ..                          ",
"              ...                                 ",
"              ...                                 ",
"             .   ..   ....                        ",
"           ..      ...                            ",
"           ..           .   .                     ",
"           ..           .   .                     ",
"       ..........     ..                          ",
"       ..........           .                     ",
"       ..........           .                     ",
"    ...............                               ",
"   ..................                             ",
" .....................                            ",
" .....................                            ",
" .....................                            ",
"....++..................                          ",
"....++..................                          ",
"...+....................                          ",
"...+...........@@@#.....                          ",
"...+...........@@@@@@###                          ",
"...+...........@@@@@@###                          ",
"....++.........$$@@@@@@@#                         ",
".................$@@@@@@@###                      ",
".................$@@@@@@@###                      ",
" .....+..........$@@@@@@@@@@###                   ",
" .................$@@@@@@@@@@...###               ",
"   ...............$@@@@@@@@@...@@@@               ",
"   ...............$@@@@@@@@@...@@@@               ",
"    ..............$$$@@@@@...@@@...               ",
"       ..........  $$@@@@...@@@..                 ",
"                   $$$@@..@@@....                 ",
"                   $$$@@..@@@....                 ",
"                     $...@@@@......               ",
"                     ...@@..........              ",
"                     ...@@..........              ",
"                     .$$$............             ",
"                     $$$..   ..........           ",
"                     $$$.      .........          ",
"                     $$$.      .........          ",
"                                ..........        ",
"                                 ..........       ",
"                                 ..........       ",
"                                   .........      ",
"                                    ..........    ",
"                                     ..........   ",
"                                     ..........   ",
"                                       .......... "};
