/* XPM */
static const char * clue_instruction_xpm[] = {
"50 50 5 1",
" 	c None",
".	c #000000",
"+	c #8241DF",
"@	c #9758F2",
"#	c #5918B7",
"                                                  ",
"                                                  ",
"                                                  ",
"                                                  ",
"                                                  ",
"      ............................                ",
"    .. .......................... ..              ",
"    ...  ......................  ...              ",
"    ....  ....................  ....              ",
"    ...... .................. ......              ",
"    ...... .................. ......              ",
"    ......  ................  ......              ",
"    ........  ............  ........              ",
"    .........   .......... .........              ",
"    ..........   ......   ..........              ",
"    ..........    ....    ..........              ",
"    ......... ...  ..  ... .........              ",
"    ........  ....    ....  ........              ",
"    ......  ................  ......              ",
"    .....  ..................  .....              ",
"    .....  ..................  .....              ",
"    ....  ......+++@..........  ....              ",
"    ...  .......++++++@@@......  ...              ",
"    .. .........++++++@@@........ ..              ",
"      ..........##+++++++@........                ",
"                  #+++++++@@@                     ",
"                  #+++++++@@@                     ",
"                  #++++++++++@@@                  ",
"                   #++++++++++...@@@              ",
"                   #+++++++++...++++              ",
"                   #+++++++++...++++              ",
"                   ###+++++...+++...              ",
"                    ##++++...+++..                ",
"                    ###++..+++....                ",
"                    ###++..+++....                ",
"                      #...++++......              ",
"                      ...++..........             ",
"                      ...++..........             ",
"                      .###............            ",
"                      ###..   ..........          ",
"                      ###.      .........         ",
"                      ###.      .........         ",
"                                 ..........       ",
"                                  ..........      ",
"                                  ..........      ",
"                                    .........     ",
"                                     ..........   ",
"                                      ..........  ",
"                                      ..........  ",
"                                        .........."};
