/* XPM */
static const char * move_instruction_xpm[] = {
"50 50 9 1",
" 	c None",
".	c #8241DF",
"+	c #9758F2",
"@	c #5918B7",
"#	c #000000",
"$	c #010101",
"%	c #020202",
"&	c #020201",
"*	c #010100",
"                                                  ",
"                                                  ",
"                               ...+               ",
"                               ......+++          ",
"                               ......+++          ",
"                               @@.......+         ",
"                                 @.......+++      ",
"                                 @.......+++      ",
"                                 @..........+++   ",
"                                  @..........###++",
"                                  @.........###...",
"                                  @.........###...",
"           ###$$#####$####$$      @@@.....###...##",
"           ##              $#      @@....###...## ",
"           #               ##      @@@..##...#### ",
"           $       $#      ##      @@@..##...#### ",
"           $      $###     #$        @###....#####",
"           #     $####%    #%        ###..########",
"           #    $###$%$#   $$        ###..########",
"           #   $#  #% ###  &#        #@@@#########",
"           #   #   $$  #   *#        @@@##   #####",
"           #       $#      ##        @@@#      ###",
"           $       ##      ##        @@@#      ###",
"           $       ##      #$                   ##",
"           #       #$      $$                    #",
"           #       #%      %#                    #",
"           #               $#                     ",
"           #               ##                     ",
"           $$####%%$###$%$###                     ",
"            ####$$####$$####                      ",
"                                                  ",
"                                                  ",
"#$####$$$####$###    %####$#####$$####            ",
"#              ##    ##              $#           ",
"#               #    #               $#           ",
"#               $    #               $#           ",
"#     ##        $    #        ##     ##           ",
"#    ##$        #    $        ###    ##           ",
"$   ##$         #    #         #$%   ##           ",
"$  ###          #    #          $##  $#           ",
"# ###$$####$$$  #    #  %$####$$#### $#           ",
"#  #$$###$%%$   #    #   ###$%$####  $#           ",
"#   $#          $    #          ##   ##           ",
"#    ##         #    $         ##    ##           ",
"#     #$        #    $        ##     ##           ",
"$      %        #    #        #      ##           ",
"#               #    #               &#           ",
"#               #    #               $#           ",
"####%$###$%$####$    #$$$###$$$####&$##           ",
"################      ################            "};
