/* XPM */
static const char * grass_bomb[] = {
"36 36 13 1",
" 	c #4E8562",
".	c #4AB06F",
"+	c #000000",
"@	c #4CAD6F",
"#	c #4BB070",
"$	c #4BAF6F",
"%	c #52AB70",
"&	c #48AB6C",
"*	c #4FAE70",
"=	c #48AB6B",
"-	c #47AA6B",
";	c #44C171",
">	c #E0E0E0",
"                                    ",
" .................................. ",
" .................................. ",
" .................................. ",
" .................................. ",
" .......................+@.#....... ",
" .....................+..$.+....... ",
" .......................+.......... ",
" .................++............... ",
" ................+..++..+++..%..... ",
" ...............+....&++.....*..... ",
" ............=..+......=-+..+...... ",
" ............+++++++....+.......... ",
" ... ........+++++++........+...... ",
" ... ......+++++++++++............. ",
" ... ;....+++++++++++++............ ",
" ... ;...+++++++++++++++........... ",
" ... ;...+++++++++++++++..... ;.... ",
" ... ;..+++>+++++++++++++.... ;.... ",
" ... ;..++>++++++++++++++.... ;.... ",
" ... ;..++>++++++++++++++.... ;.... ",
" ... ;..++>++++++++++++++.... ;.... ",
" ... ...+++>+++++++++++++.... ;.... ",
" ... ...+++++++++++++++++.... ;.... ",
" ... ....+++>+++++++++++..... ;.... ",
" ... ....+++++++++++++++..... ;.... ",
" .........+++++++++++++...... ..... ",
" ..........+++++++++++....... ..... ",
" ............+++++++......... ..... ",
" ............................ ..... ",
" ............................ ..... ",
" ............................ ..... ",
" .................................. ",
" .................................. ",
" .................................. ",
"                                    "};
