/* XPM */
static const char * grass_clue[] = {
"36 36 3 1",
" 	c #4E8562",
".	c #4AB06F",
"+	c #000000",
"                                    ",
" .................................. ",
" .................................. ",
" .................................. ",
" .................................. ",
" .................................. ",
" .................................. ",
" .................................. ",
" .................................. ",
" ....++++++++++++++++++++++++++.... ",
" ...+.++++++++++++++++++++++++.+... ",
" ...++..++++++++++++++++++++..++... ",
" ...+++..++++++++++++++++++..+++... ",
" ...+++++.++++++++++++++++.+++++... ",
" ...+++++..++++++++++++++..+++++... ",
" ...+++++++..++++++++++..+++++++... ",
" ...++++++++..+++++++++.++++++++... ",
" ...+++++++++..++++++..+++++++++... ",
" ...+++++++++...++++...+++++++++... ",
" ...++++++++.++..++..++.++++++++... ",
" ...+++++++..+++....+++..+++++++... ",
" ...+++++..++++++++++++++..+++++... ",
" ...++++..++++++++++++++++..++++... ",
" ...+++..++++++++++++++++++..+++... ",
" ...++..++++++++++++++++++++..++... ",
" ...+.++++++++++++++++++++++++.+... ",
" ....++++++++++++++++++++++++++.... ",
" .................................. ",
" .................................. ",
" .................................. ",
" .................................. ",
" .................................. ",
" .................................. ",
" .................................. ",
" .................................. ",
"                                    "};
