/* XPM */
static const char *grass1[]={
"36 36 6 1",
"a c #44c171",
"# c #4ab06f",
". c #4e8562",
"d c #66d0d5",
"c c #cdd56c",
"b c #d5666a",
"....................................",
".##################################.",
".##################################.",
".##################################.",
".##################################.",
".########.#########################.",
".########.#########################.",
".########.######.##################.",
".########.######.a########b########.",
".########.######.a#######bcb#######.",
".########.a#####.a########b########.",
".########.a#####.a#################.",
".########.a#####.a#################.",
".###.####.a#####.a#################.",
".###.####.a#####.a#################.",
".###.a###.a#####.##################.",
".###.a###.a########################.",
".###.a###.a##################.a####.",
".###.a#######################.a####.",
".###.a###############.#######.a####.",
".###.a###############.#######.a####.",
".###.a###############.#######.a####.",
".###.################.#######.a####.",
".###.################.#######.a####.",
".###.################.a######.a####.",
".###.################.a######.a####.",
".####################.a######.#####.",
".##########d#########.a######.#####.",
".#########dcd########.a######.#####.",
".##########d#########.a######.#####.",
".####################.#######.#####.",
".############################.#####.",
".##################################.",
".##################################.",
".##################################.",
"...................................."};
