/* XPM */
static const char * grass_bomb_defused[] = {
"36 36 9 1",
" 	c #4E8562",
".	c #4AB06F",
"+	c #4BB070",
"@	c #52AB70",
"#	c #202020",
"$	c #4FAE70",
"%	c #48AB6B",
"&	c #000000",
"*	c #44C171",
"                                    ",
" .................................. ",
" .................................. ",
" .................................. ",
" .................................. ",
" ..........................+....... ",
" .................................. ",
" .................................. ",
" .................................. ",
" ............................@..... ",
" ...............#............$..... ",
" ............%..&.................. ",
" ............&#&#&#&............... ",
" ... ........#&#&#&#............... ",
" ... ......&#&#&#&#&#&............. ",
" ... *....&#&#&#&#&#&#&............ ",
" ... *...&#&#&#&#&#&#&#&........... ",
" ... *...#&#&#&#&#&#&#&#..... *.... ",
" ... *..#&#&#&#&#&#&#&#&#.... *.... ",
" ... *..&#&#&#&#&#&#&#&#&.... *.... ",
" ... *..#&#&#&#&#&#&#&#&#.... *.... ",
" ... *..&#&#&#&#&#&#&#&#&.... *.... ",
" ... ...#&#&#&#&#&#&#&#&#.... *.... ",
" ... ...&#&#&#&#&#&#&#&#&.... *.... ",
" ... ....&#&#&#&#&#&#&#&..... *.... ",
" ... ....#&#&#&#&#&#&#&#..... *.... ",
" .........#&#&#&#&#&#&#...... ..... ",
" ..........#&#&#&#&#&#....... ..... ",
" ............&#&#&#&......... ..... ",
" ............................ ..... ",
" ............................ ..... ",
" ............................ ..... ",
" .................................. ",
" .................................. ",
" .................................. ",
"                                    "};
