/* XPM */
static const char *stone1[]={
"36 36 5 1",
"b c #514545",
". c #5b5b5b",
"# c #696969",
"a c #808080",
"c c #d5d5d5",
"....................................",
".##################################.",
".##################################.",
".##.a##############################.",
".##.a######################b#######.",
".##.a#######.#################.####.",
".##.a#######.a################.####.",
".##.a#######.a################.####.",
".##.a#######.a################.####.",
".##.a#######.a################.a###.",
".##.a###c###.a###c############.a###.",
".##.a#######.a################.a###.",
".##.a#######.a######.#########.a###.",
".##.a#######.a######.#########.a###.",
".##.a#######.a######.#########.a###.",
".##.a#######.a######.#########.a###.",
".##.########.a######.#####.###.a###.",
".##.##.#############.a####.###.a###.",
".##.##.#############.a####.########.",
".#####.a############.a####.########.",
".#####.a############.a####.########.",
".#####.a##################.########.",
".#####.a#####b############.########.",
".#####.a##################.####c###.",
".#####.a##################.########.",
".#####.a##################.a#######.",
".#####.a##################.a#######.",
".#####.a##################.a#######.",
".#####.a##################.a#######.",
".#####.a##################.a#######.",
".#####.a###########b######.a#######.",
".#####.a##################.a#######.",
".#####.############################.",
".##################################.",
".##################################.",
"...................................."};
