/* XPM */
static const char *cursor[]={
"63 61 7 1",
". c None",
"a c #000000",
"e c #333333",
"d c #5918b7",
"c c #8241df",
"b c #9758f2",
"# c #ffffff",
"..#######......................................................",
".#aaaaaaa##....................................................",
"#aaabbbbaaa##..................................................",
".#abbccbbbaaa##................................................",
".#aaddcccbbbaaa##..............................................",
"..##adcccccbbbaaa#.............................................",
"...#adcccccccbbbaa##...........................................",
"...#aadccccccccbbaaa##.........................................",
"....#adcccccccccbbbbaa##.......................................",
"....#addccccccccccbbbaaa#####..................................",
"....#addccccccccccccbbbaaaaaa####..............................",
".....#addccccccccccccbbbaaaaaaaaa#.............................",
".....#aadccccccccccccccaaabbbbbaa#.............................",
"......#addccccccccccccaaaabbbbaa#..............................",
"......#adddccccccccccaaacccccba#...............................",
"......#adddcccccccccaaacccccaa#................................",
".......#adddcccccccaaaaccccaa#.................................",
".......#aadddcccccaaaaccccaa#..................................",
"........#adddccccaaaaccccaa#...................................",
"........#aadddccaaaaccccaaa#...................................",
".........#adddcaaaaccccaaeea#..................................",
".........#aaddaaaaccccaaaaeea#.................................",
"..........#adaaaaccccaaaaaaeea#................................",
"..........#aaaaaccccaaaaaaaaeea#...............................",
"..........#aaaaddccaaaaaaaaaaeea#..............................",
"..........#aaadddcaa##aaaaaaaaeea#.............................",
"..........#aaddddaa#..#aaaaaaaaeea#............................",
"...........#adddaa#....#aaaaaaaaeea#...........................",
"...........#addaa#......#aaaaaaaaeea#..........................",
"...........#adaa#........#aaaaaaaaeea#.........................",
"...........#aaa#..........#aaaaaaaaeea#........................",
"............###............#aaaaaaaaeea#.......................",
"............................#aaaaaaaaeea#......................",
".............................#aaaaaaaaeea#.....................",
"..............................#aaaaaaaaeea#....................",
"...............................#aaaaaaaaeea#...................",
"................................#aaaaaaaaeea#..................",
".................................#aaaaaaaaeea#.................",
"..................................#aaaaaaaaeea#................",
"...................................#aaaaaaaaeea#...............",
"....................................#aaaaaaaaeea#..............",
".....................................#aaaaaaaaeea#.............",
"......................................#aaaaaaaaeea#............",
".......................................#aaaaaaaaeea#...........",
"........................................#aaaaaaaaeea#..........",
".........................................#aaaaaaaaeea#.........",
"..........................................#aaaaaaeea#a#........",
"...........................................#aaaaaea###a#.......",
"............................................#aaaea#####a#......",
".............................................#aea#######a#.....",
"..............................................#a#########a#....",
"...............................................#a#########a#...",
"................................................#a#########a#..",
".................................................#a#########a#.",
"..................................................#a#########a#",
"...................................................#a#######a#.",
"....................................................#a#####a#..",
".....................................................#a###a#...",
"......................................................#a#a#....",
".......................................................#a#.....",
"........................................................#......"};
