/* XPM */
static const char * timer_instruction_xpm[] = {
"50 50 3 1",
" 	c #800000",
".	c #FFFFFF",
"+	c #000000",
"                                                  ",
"  ............+++               ....++++.....+++  ",
"  ............+++               ....++++.....+++  ",
"  ............+++               ....++++.....+++  ",
"  ....++++....+++               ....++++.....+++  ",
"  ....++++....+++               ....++++.....+++  ",
"  ....++++....+++               ....++++.....+++  ",
"  ....++++....+++               ....++++.....+++  ",
"  ....++++....+++               ....++++.....+++  ",
"  ....++++....+++               .............+++  ",
"  ....++++....+++               .............+++  ",
"  ....++++....+++               .............+++  ",
"  ....++++....+++               .............+++  ",
"  ....++++....+++               ++++++++.....+++  ",
"  ....++++....+++               ++++++++.....+++  ",
"  ....++++....+++               ++++++++.....+++  ",
"  ....++++....+++                       .....+++  ",
"  ....++++....+++                       .....+++  ",
"  ....++++....+++                       .....+++  ",
"  ....++++....+++                       .....+++  ",
"  ............+++                       .....+++  ",
"  ............+++                       .....+++  ",
"  ............+++                       .....+++  ",
"                                                  ",
"  ............+++               .............+++  ",
"  ............+++               .............+++  ",
"  ............+++               .............+++  ",
"  ............+++               .............+++  ",
"  ++++++++....+++               ++++++++.....+++  ",
"  ++++++++....+++               ++++++++.....+++  ",
"  ++++++++....+++               ++++++++.....+++  ",
"          ....+++                       .....+++  ",
"          ....+++                       .....+++  ",
"          ....+++                       .....+++  ",
"          ....+++                       .....+++  ",
"      ........+++               .............+++  ",
"      ........+++               .............+++  ",
"      ........+++               .............+++  ",
"      ........+++               .............+++  ",
"      ++++....+++               .............+++  ",
"      ++++....+++               .....+++++++++++  ",
"      ++++....+++               .....+++++++++++  ",
"          ....+++               .....+++++++++++  ",
"          ....+++               .....+++          ",
"          ....+++               .....+++          ",
"          ....+++               .....+++          ",
"  ............+++               .............+++  ",
"  ............+++               .............+++  ",
"  ............+++               .............+++  ",
"                                                  "};
